<?xml version="1.0" encoding="utf-8"?>
<!-- Generator: Adobe Illustrator 27.5.0, SVG Export Plug-In . SVG Version: 6.00 Build 0)  -->
<svg version="1.1" xmlns="http://www.w3.org/2000/svg" xmlns:xlink="http://www.w3.org/1999/xlink" x="0px" y="0px"
	 viewBox="0 0 3710 3710" style="enable-background:new 0 0 3710 3710;" xml:space="preserve">
<g id="Background">
	<g>
		<g>
			<rect style="fill:#FFFFFF;" width="3710" height="3710"/>
		</g>
	</g>
</g>
<g id="Illustration">
	<g>
		<path style="fill:#F4F7FA;" d="M490.647,1644.466c75.245-496.826,383.749-1107.211,993.232-1171.09
			c0,0,462.748-56.778,918.917,29.277c270.736,51.072,508.131,203.107,658.346,421.617
			c150.216,218.512,200.392,484.956,139.496,738.977c-39.551,164.988-66.277,335.742-58.943,505.276
			c9.249,213.811,26.669,438.619-67.03,638.005c-137.288,292.13-472.262,378.181-764.547,405.626
			c-107.709,10.113-215.817,14.19-323.621,22.788c-206.809,16.494-438.733-10.198-638.057-64.512
			C332.636,2893.627,415.402,2141.29,490.647,1644.466z"/>
		<g>
			<g>
				
					<linearGradient id="SVGID_1_" gradientUnits="userSpaceOnUse" x1="-2848.9263" y1="1339.4653" x2="-3241.9209" y2="4381.9839" gradientTransform="matrix(0.996 -0.0892 0.0892 0.996 5593.2568 18.7124)">
					<stop  offset="0" style="stop-color:#FFC444"/>
					<stop  offset="0.9964" style="stop-color:#F36F56"/>
				</linearGradient>
				<path style="fill:url(#SVGID_1_);" d="M2763.831,2899.944c-50.154,0.509-115.105-7.624-179.839-42.126
					c-70.037-37.329-164.173-118.507-146.697-176.535c6.524-21.664,29.098-41.736,50.504-41.934
					c31.623-0.291,39.185,42.994,97.955,85.548c10.861,7.865,67.016,48.525,91.547,30.933c12.195-8.746,14.119-30.128,10.586-45.937
					c-10.329-46.224-68.08-48.292-127.515-94.009c-60.259-46.352-114.677-131.748-93.577-194.668
					c12.125-36.158,49.979-67.246,77.171-61.896c11.621,2.286,19.63,10.9,60.669,82.107c33.683,58.444,41.552,75.656,60.266,79.807
					c19.262,4.273,47.712-5.801,57.127-25.245c24.52-50.638-106.412-110.436-129.771-243.914
					c-10.468-59.815-2.163-150.603,50.702-174.638c35.737-16.248,90.073-1.187,112.107,30.96
					c19.863,28.98,1.109,53.802,20.317,121.181c5.828,20.447,17.823,62.521,35.246,63.225c20.455,0.826,38.188-55.781,42.226-69.542
					c30.399-103.598-19.344-151.016,13.42-202.92c25.549-40.473,87.161-61.328,138.762-46.662
					c45.154,12.834,83.977,53.246,90.351,98.16c6.485,45.697-28.035,94.858-97.075,193.18
					c-32.74,46.626-59.256,78.522-53.74,121.458c2.689,20.931,13.663,49.727,28.948,51.078
					c33.735,2.982,38.104-132.179,114.945-159.874c39.331-14.176,91.243,2.113,116.488,36.449
					c30.932,42.071,18.524,106.737-12.361,142.923c-40.297,47.213-88.54,18.396-167.492,72.304
					c-35.025,23.914-89.042,72.95-77.31,108.449c5.107,15.457,23.039,29.434,41.384,29.869
					c41.12,0.975,48.589-66.94,111.406-102.126c45.257-25.351,110.658-28.905,128.526-3.702
					c25.225,35.581-44.793,127.76-82.705,169.116C3100.572,2780.958,2990.601,2877.828,2763.831,2899.944z"/>
				<g style="opacity:0.5;">
					<path style="fill:#FFFFFF;" d="M2781.799,2876.928c-16.634-111.39,37.023-345.906,81.271-458.417
						c43.114-109.634,78.509-280.261,78.862-281.971l8.276,1.706c-0.353,1.718-35.892,173.044-79.275,283.357
						c-43.909,111.654-97.206,344.052-80.776,454.077L2781.799,2876.928z"/>
				</g>
			</g>
			
				<linearGradient id="SVGID_00000181802844421735321460000015720859834226483348_" gradientUnits="userSpaceOnUse" x1="-2872.1824" y1="2334.4355" x2="-3364.2891" y2="2924.3704" gradientTransform="matrix(0.9559 0.2938 -0.2938 0.9559 6581.2759 1137.152)">
				<stop  offset="0" style="stop-color:#AA80F9"/>
				<stop  offset="0.9964" style="stop-color:#6165D7"/>
			</linearGradient>
			<path style="fill:url(#SVGID_00000181802844421735321460000015720859834226483348_);" d="M2735.983,2874.52
				c-20.634-61.024-45.72-167.399-18.121-290.921c11.372-50.898,33.584-150.308,118.698-215.791
				c42.422-32.638,124.156-75.07,161.094-44.233c23.768,19.842,27.316,68.625,9.432,99.395
				c-18.033,31.025-47.223,25.443-95.4,72.693c-17.827,17.484-38.396,38.118-32.684,55.101c4.77,14.183,27.035,23.34,46.357,21.651
				c39.914-3.489,42.403-51.082,90.509-70.984c34.208-14.152,82.941-10.769,96.895,13.72c12.115,21.263-2.359,57.792-25.086,78.121
				c-36.393,32.554-76.024,7.543-117.637,42.572c-18.461,15.54-36.348,42.084-28.96,57.023c8.417,17.022,48.622,16.894,76.624,9.542
				c36.97-9.707,44.411-29.837,65.652-26.12c23.692,4.146,45.535,34.635,42.61,60.04c-4.098,35.581-56.553,59.195-94.103,64.918
				c-48.071,7.327-75.538-14.084-104.463,7.22c-10.616,7.819-22.569,22.232-19.497,34.152c4.383,17.006,37.567,22.034,59.601,25.373
				c53.624,8.125,73.456-6.132,89.053,8.55c15.792,14.865,15.892,48.71,1.186,67.912c-8.173,10.671-27.337,25.201-97.482,16.431
				C2911.161,2954.743,2831.127,2936.444,2735.983,2874.52z"/>
		</g>
		<g>
			<g>
				<path style="fill:#D8DEE8;" d="M1822.445,2725.747c-32.265,38.401-80.723,82.409-149.055,109.083
					c-73.931,28.86-196.834,47.467-229.504-3.577c-12.197-19.056-12.736-49.259,1.049-65.635
					c20.367-24.193,58.145-1.754,128.707-18.66c13.041-3.124,80.462-19.278,83.079-49.352c1.301-14.951-13.677-30.331-27.977-37.941
					c-41.811-22.252-80.978,20.238-154.374,35.59c-74.413,15.564-174.662,1.276-208.685-55.702
					c-19.552-32.743-18.507-81.716,3.257-98.873c9.301-7.333,21.053-7.804,101.821,7.402c66.291,12.481,84.479,17.713,99.813,6.211
					c15.784-11.839,26.658-39.994,18.029-59.798c-22.474-51.579-153.104,8.877-269.629-60.29
					c-52.218-30.996-115.724-96.404-99.553-152.178c10.932-37.705,57.738-69.143,96.484-64.94
					c34.929,3.789,41.562,34.185,105.21,63.47c19.314,8.887,59.06,27.174,70.937,14.407c13.943-14.989-17.48-65.302-25.296-77.325
					c-58.846-90.52-127.223-83.631-145.291-142.292c-14.089-45.742,10.192-106.086,54.918-135.707
					c39.138-25.919,95.088-29.079,133.329-4.677c38.909,24.827,53.752,83.035,83.438,199.45
					c14.077,55.207,21.026,96.098,57.208,119.863c17.638,11.585,46.641,22.003,57.617,11.28
					c24.226-23.666-75.525-114.975-46.522-191.331c14.845-39.083,61.005-67.883,103.504-64.692
					c52.071,3.91,93.08,55.427,100.44,102.429c9.603,61.324-43.678,79.183-54.158,174.208
					c-4.649,42.155-2.595,115.081,31.989,129.286c15.057,6.186,37.341,1.675,49.615-11.968c27.51-30.578-19.179-80.461-4.992-151.05
					c10.221-50.856,50.101-102.814,80.864-99.969c43.43,4.016,67.816,117.176,74.526,172.876
					C1951.353,2392.679,1953.29,2539.218,1822.445,2725.747z"/>
				<g style="opacity:0.5;">
					<path style="fill:#FFFFFF;" d="M1816.672,2697.125c-95.381-59.891-238.461-253.295-295.057-360.128
						c-55.15-104.1-161.623-242.049-162.692-243.43l6.682-5.172c1.074,1.386,107.985,139.899,163.475,244.646
						c56.166,106.019,197.873,297.77,292.085,356.927L1816.672,2697.125z"/>
				</g>
			</g>
			
				<linearGradient id="SVGID_00000052791858223037453860000013948166997225153212_" gradientUnits="userSpaceOnUse" x1="-3247.3333" y1="1439.4368" x2="-3739.4768" y2="2029.4156" gradientTransform="matrix(0.5807 -0.8141 0.8141 0.5807 2278.7278 -1152.5815)">
				<stop  offset="0" style="stop-color:#FF9085"/>
				<stop  offset="1" style="stop-color:#FB6FBB"/>
			</linearGradient>
			<path style="fill:url(#SVGID_00000052791858223037453860000013948166997225153212_);" d="M1765.898,2830.173
				c-64.417,0.296-173.269-9.512-281.744-74.724c-44.698-26.871-131.998-79.353-167.235-180.797
				c-17.563-50.561-31.997-141.515,8.93-166.818c26.335-16.281,73.74-4.235,97.283,22.455
				c23.739,26.912,9.219,52.843,38.827,113.481c10.956,22.438,24.034,48.473,41.951,48.419
				c14.964-0.044,30.686-18.276,35.188-37.142c9.3-38.971-35.068-56.37-38.751-108.3c-2.619-36.927,15.988-82.095,43.631-87.597
				c24.002-4.776,54.086,20.497,66.194,48.484c19.388,44.814-16.863,74.513,3.224,125.062c8.911,22.425,28.445,47.782,44.952,45.493
				c18.809-2.608,31.391-40.794,33.262-69.684c2.471-38.143-14.277-51.564-4.04-70.542c11.42-21.168,47.248-32.26,70.427-21.458
				c32.464,15.13,38.295,72.359,31.861,109.793c-8.237,47.924-37.229,67.218-26.155,101.393
				c4.064,12.542,13.962,28.437,26.243,29.289c17.52,1.214,32.774-28.681,42.904-48.531c24.652-48.31,17.391-71.631,36.248-81.791
				c19.092-10.286,51.236,0.313,64.808,20.331c7.543,11.126,15.273,33.899-15.21,97.681
				C1897.359,2689.315,1854.71,2759.467,1765.898,2830.173z"/>
		</g>
		<g>
			<g>
				<g>
					<g>
						<g>
							
								<linearGradient id="SVGID_00000122709828670082748790000012991115645953016756_" gradientUnits="userSpaceOnUse" x1="4529.1875" y1="2517.8779" x2="3518.2896" y2="1655.5354" gradientTransform="matrix(-1 0 0 1 5965.4175 0)">
								<stop  offset="0" style="stop-color:#444B8C"/>
								<stop  offset="0.9964" style="stop-color:#26264F"/>
							</linearGradient>
							<path style="fill:url(#SVGID_00000122709828670082748790000012991115645953016756_);" d="M1685.401,675.724V2836.64
								c0,32.315,27.15,40.147,57.927,42.166l1049.17,89.096l15.809,1.035c32.432,2.124,59.005-23.331,59.005-56.569V689.711
								c0-33.238-26.573-60.71-59.005-61.048l-21.455-0.223L1733.76,665.989C1702.98,665.676,1685.401,643.409,1685.401,675.724z"/>
							
								<linearGradient id="SVGID_00000052079990579860116370000018043204846117963399_" gradientUnits="userSpaceOnUse" x1="-1119.7803" y1="5070.1533" x2="2744.4509" y2="5213.8994" gradientTransform="matrix(0 -1 -1 0 7354.4497 1734.3226)">
								<stop  offset="0" style="stop-color:#444B8C"/>
								<stop  offset="0.9964" style="stop-color:#26264F"/>
							</linearGradient>
							<path style="fill:url(#SVGID_00000052079990579860116370000018043204846117963399_);" d="M1652.518,674.297V2835.57
								c0,32.32,25.156,60.412,55.944,62.428l1067.332,69.897c32.443,2.125,59.024-23.334,59.024-56.578V688.296
								c0-33.244-26.581-60.72-59.024-61.058l-1067.332-11.121C1677.674,615.795,1652.518,641.977,1652.518,674.297z"/>
							<path style="fill:#D8DEE8;" d="M1687.263,794.599v2001.813c0,30.17,23.501,56.368,52.26,58.22l1003.639,64.627
								c30.211,1.945,54.961-21.808,54.961-52.787V810.967c0-30.979-24.75-56.658-54.961-57.063l-1003.639-13.459
								C1710.764,740.059,1687.263,764.429,1687.263,794.599z"/>
						</g>
						<path style="fill:#DE8BDF;" d="M2215.519,687.541c0,11.356,8.873,20.673,19.824,20.81
							c10.957,0.137,19.843-8.967,19.843-20.334c0-11.367-8.886-20.684-19.843-20.81
							C2224.392,667.081,2215.519,676.185,2215.519,687.541z"/>
					</g>
					<g>
						<path style="fill:#F4F7FA;" d="M1843.76,2016.004l801.536,40.335c10.094,0.508,18.281-7.447,18.281-17.768V1860
							c0-10.321-8.187-19.053-18.281-19.503l-801.536-35.766c-9.666-0.431-17.499,7.401-17.499,17.494v174.623
							C1826.261,2006.942,1834.094,2015.517,1843.76,2016.004z"/>
						<path style="fill:#F4F7FA;" d="M1845.588,2346.357l797.799,47.257c11.148,0.66,20.189-8.045,20.189-19.443v-174.668
							c0-11.399-9.042-21.123-20.189-21.72l-797.799-42.708c-10.676-0.572-19.327,8.001-19.327,19.148v170.807
							C1826.261,2336.176,1834.912,2345.724,1845.588,2346.357z"/>
						<path style="fill:#FFFFFF;" d="M1924.988,1272.231c0,179.905,140.485,331.22,315.252,338.028
							c176.414,6.873,320.65-135.847,320.65-318.833c0-182.985-144.236-334.413-320.65-338.191
							C2065.472,949.493,1924.988,1092.326,1924.988,1272.231z"/>
						<path style="fill:#FFFFFF;" d="M2240.239,1618.233c-86.513-3.367-167.74-41.233-228.69-106.648
							c-60.869-65.329-94.406-150.457-94.406-239.67c0-89.184,33.519-172.253,94.353-233.872
							c60.913-61.7,142.104-94.64,228.586-92.786c86.899,1.844,168.845,38.483,230.844,103.081
							c63.052,65.694,97.759,152.127,97.759,243.405c0,90.513-34.209,174.34-96.355,236.071
							c-62.109,61.693-144.5,93.814-232.038,90.422C2240.275,1618.235,2240.256,1618.234,2240.239,1618.233z M2240.399,961.214
							c-169.475-3.622-307.567,136.039-307.567,311.335c0,175.206,138.021,323.131,307.409,329.737
							c0.02,0.001,0.029,0.001,0.049,0.002c83.323,3.233,161.783-27.357,220.939-86.109
							c59.249-58.844,91.864-138.765,91.864-225.067c0-86.972-33.049-169.302-93.091-231.852
							c-57.467-59.87-132.954-94.466-213.226-97.843C2244.659,961.328,2242.524,961.26,2240.399,961.214z"/>
					</g>
					<path style="opacity:0.4;fill:#D8DEE8;" d="M1652.519,673.063c0-32.073,25.026-57.27,56.547-56.941l583.47,6.08
						c-216.024,224.009-264.662,417.861-270.216,551.522c-15.853,381.565,306.955,560.416,247.012,975.569
						c-16.439,113.854-52.805,184.452-67.013,381.708c-12.114,168.191,0.548,308.158,13.162,400.2l-507.021-33.204
						c-30.787-2.016-55.942-30.107-55.942-62.428V673.063z"/>
				</g>
			</g>
			<g>
				<g>
					
						<linearGradient id="SVGID_00000134959712447648740470000006822640418887638701_" gradientUnits="userSpaceOnUse" x1="4244.3833" y1="823.6367" x2="3373.0369" y2="2045.418" gradientTransform="matrix(-1 -0.001 -0.001 1 6163.2705 -0.2172)">
						<stop  offset="0" style="stop-color:#AA80F9"/>
						<stop  offset="0.9964" style="stop-color:#6165D7"/>
					</linearGradient>
					<path style="fill:url(#SVGID_00000134959712447648740470000006822640418887638701_);" d="M2214.524,1391.17
						c-32.237-0.974-58.454-26.155-58.427-55.965l0.184-198.734c0.028-29.806,26.291-54.12,58.529-54.022
						c32.422,0.098,59.063,24.825,59.036,54.941l-0.186,200.802C2273.632,1368.312,2246.945,1392.149,2214.524,1391.17z"/>
					
						<linearGradient id="SVGID_00000073712744410431254400000016985749928744389258_" gradientUnits="userSpaceOnUse" x1="4306.1035" y1="867.6816" x2="3434.7815" y2="2089.4287" gradientTransform="matrix(-1 -0.001 -0.001 1 6163.2705 -0.2172)">
						<stop  offset="0" style="stop-color:#AA80F9"/>
						<stop  offset="0.9964" style="stop-color:#6165D7"/>
					</linearGradient>
					<path style="fill:url(#SVGID_00000073712744410431254400000016985749928744389258_);" d="M2122.017,1294.093
						c5.158,0.113,9.341,4.111,9.336,8.935l-0.034,37.178c-0.04,42.549,37.124,78.381,83.179,79.89
						c46.431,1.521,84.522-32.362,84.562-75.544l0.035-37.731c0.005-4.896,4.323-8.766,9.648-8.65
						c5.331,0.116,9.653,4.183,9.648,9.086l-0.035,37.795c-0.046,50.046-41.77,89.836-94.377,92.519l-0.053,57.11l31.525,1.239
						c5.282,0.208,9.563,4.333,9.559,9.21c-0.005,4.881-4.294,8.659-9.575,8.443l-81.758-3.339
						c-5.201-0.213-9.411-4.303-9.406-9.141c0.004-4.834,4.221-8.591,9.423-8.386l31.252,1.228l0.053-57.014
						c-51.943-6.217-92.399-48.05-92.354-97.198l0.034-37.116C2112.684,1297.79,2116.863,1293.981,2122.017,1294.093z"/>
				</g>
			</g>
			<g>
				<g style="opacity:0.6;">
					<path style="fill:#FFFFFF;" d="M1781.976,1803.4c-5.579,0.378-11.166-1.124-15.434-4.595
						c-75.441-61.38-135.411-135.5-177.714-220.149c-44.136-88.313-66.691-183.623-66.783-282.764
						c-0.092-99.139,22.286-195.434,66.257-285.681c42.144-86.499,101.975-163.246,177.299-227.932
						c8.521-7.315,22.318-6.983,30.818,0.721c8.489,7.695,8.5,19.849,0.025,27.168
						c-146.744,126.733-229.124,299.803-228.953,484.728s82.868,354.377,229.841,474.669c8.488,6.946,8.499,19.101,0.025,27.167
						C1793.116,1800.769,1787.55,1803.023,1781.976,1803.4z"/>
					<path style="fill:#FFFFFF;" d="M1700.355,1881.048c-5.662,0.42-11.329-1.054-15.661-4.521
						c-87.43-70.021-157.057-154.944-206.238-252.219c-51.37-101.603-77.646-211.433-77.752-325.755
						c-0.106-114.322,25.966-225.3,77.146-329.152c48.999-99.428,118.466-187.401,205.763-261.252
						c8.646-7.312,22.645-6.885,31.272,0.932c8.612,7.807,8.623,20.05,0.025,27.365
						c-171.438,145.862-267.993,346.362-267.794,561.088c0.199,214.726,97.121,410.984,268.822,549.323
						c8.611,6.938,8.621,19.181,0.024,27.365C1711.659,1878.319,1706.01,1880.629,1700.355,1881.048z"/>
					<path style="fill:#FFFFFF;" d="M1941.721,1651.434c-5.422,0.298-10.849-1.257-14.996-4.736
						c-108.568-91.106-169.344-218.018-169.471-355.964c-0.128-137.945,60.411-267.516,168.806-363.377
						c8.276-7.321,21.683-7.168,29.944,0.318c8.247,7.477,8.257,19.458,0.024,26.78c-99.683,88.642-155.29,208.173-155.172,335.323
						c0.118,127.15,55.944,244.24,155.788,328.508c8.247,6.96,8.256,18.942,0.024,26.78
						C1952.546,1648.989,1947.136,1651.136,1941.721,1651.434z"/>
					<path style="fill:#FFFFFF;" d="M1862.423,1726.87c-5.499,0.337-11.006-1.191-15.213-4.667
						c-132.039-109.113-206.186-262.156-206.341-428.916c-0.154-166.757,73.707-323.045,205.538-437.946
						c8.398-7.318,21.998-7.077,30.376,0.517c8.367,7.585,8.378,19.652,0.025,26.972
						c-122.835,107.659-191.574,253.742-191.43,409.481c0.144,155.741,69.151,298.805,192.18,401.071
						c8.366,6.953,8.378,19.021,0.026,26.972C1873.404,1724.332,1867.917,1726.532,1862.423,1726.87z"/>
				</g>
			</g>
			<g>
				<g style="opacity:0.6;">
					<path style="fill:#FFFFFF;" d="M2722.54,1803.4c5.579,0.378,11.166-1.124,15.434-4.595
						c75.44-61.38,135.411-135.5,177.713-220.149c44.136-88.313,66.691-183.623,66.783-282.764
						c0.092-99.139-22.286-195.434-66.257-285.681c-42.144-86.499-101.975-163.246-177.299-227.932
						c-8.521-7.315-22.318-6.983-30.818,0.721c-8.489,7.695-8.5,19.849-0.025,27.168
						c146.745,126.733,229.125,299.803,228.953,484.728s-82.868,354.377-229.841,474.669c-8.488,6.946-8.499,19.101-0.025,27.167
						C2711.4,1800.769,2716.966,1803.023,2722.54,1803.4z"/>
					<path style="fill:#FFFFFF;" d="M2804.161,1881.048c5.662,0.42,11.329-1.054,15.661-4.521
						c87.43-70.021,157.057-154.944,206.238-252.219c51.37-101.603,77.646-211.433,77.752-325.755
						c0.106-114.322-25.966-225.3-77.146-329.152c-48.999-99.428-118.466-187.401-205.763-261.252
						c-8.646-7.312-22.645-6.885-31.272,0.932c-8.612,7.807-8.623,20.05-0.025,27.365
						c171.438,145.862,267.993,346.362,267.794,561.088s-97.121,410.984-268.822,549.323c-8.611,6.938-8.621,19.181-0.024,27.365
						C2792.857,1878.319,2798.506,1880.629,2804.161,1881.048z"/>
					<path style="fill:#FFFFFF;" d="M2562.795,1651.434c5.422,0.298,10.849-1.257,14.996-4.736
						c108.567-91.106,169.344-218.018,169.471-355.964s-60.411-267.516-168.805-363.377c-8.276-7.321-21.683-7.168-29.945,0.318
						c-8.247,7.477-8.257,19.458-0.024,26.78c99.683,88.642,155.29,208.173,155.172,335.323
						c-0.118,127.15-55.944,244.24-155.788,328.508c-8.247,6.96-8.257,18.942-0.023,26.78
						C2551.969,1648.989,2557.379,1651.136,2562.795,1651.434z"/>
					<path style="fill:#FFFFFF;" d="M2642.093,1726.87c5.499,0.337,11.006-1.191,15.213-4.667
						c132.039-109.113,206.186-262.156,206.341-428.916c0.154-166.757-73.707-323.045-205.539-437.946
						c-8.398-7.318-21.997-7.077-30.376,0.517c-8.367,7.585-8.379,19.652-0.025,26.972
						c122.835,107.659,191.574,253.742,191.43,409.481c-0.144,155.741-69.151,298.805-192.18,401.071
						c-8.367,6.953-8.378,19.021-0.026,26.972C2631.111,1724.332,2636.599,1726.532,2642.093,1726.87z"/>
				</g>
			</g>
		</g>
		<g>
			<g>
				
					<linearGradient id="SVGID_00000008860496886452970750000005354338287647945105_" gradientUnits="userSpaceOnUse" x1="729.7952" y1="1351.4225" x2="382.9008" y2="1690.5732">
					<stop  offset="0" style="stop-color:#444B8C"/>
					<stop  offset="0.9964" style="stop-color:#26264F"/>
				</linearGradient>
				<path style="fill:url(#SVGID_00000008860496886452970750000005354338287647945105_);" d="M791.457,1087.106
					c129.443,5.686,232.095,101.939,232.095,215.11c0,113.171-102.652,204.434-232.095,203.828
					c-132.66-0.621-242.647-97.051-242.647-215.367C548.81,1172.361,658.797,1081.278,791.457,1087.106z"/>
			</g>
			<g>
				
					<linearGradient id="SVGID_00000155862033631677085770000003158753012714664320_" gradientUnits="userSpaceOnUse" x1="697.9728" y1="1142.7806" x2="1105.4473" y2="1721.9434">
					<stop  offset="0.0036" style="stop-color:#E38DDD"/>
					<stop  offset="1" style="stop-color:#9571F6"/>
				</linearGradient>
				<path style="fill:url(#SVGID_00000155862033631677085770000003158753012714664320_);" d="M798.081,1068.042
					c129.443,5.686,232.095,101.939,232.095,215.11c0,113.171-102.653,204.435-232.095,203.828
					c-132.66-0.621-242.646-97.051-242.646-215.367S665.421,1062.215,798.081,1068.042z"/>
			</g>
			<g style="opacity:0.3;">
				<path style="fill:#FFFFFF;" d="M797.39,1095.443c112.5,4.942,201.716,88.596,201.716,186.954
					c0,98.358-89.216,177.675-201.716,177.148c-115.296-0.54-210.885-84.347-210.885-187.177
					C586.505,1169.539,682.095,1090.378,797.39,1095.443z"/>
			</g>
			<path style="opacity:0.3;fill:#FFFFFF;" d="M999.106,1282.396c0-98.358-89.216-182.012-201.716-186.954
				c-80.991-3.558-152.204,34.476-187.443,93.05c38.182-47.593,102.358-77.14,174.195-73.986
				c112.499,4.943,201.715,88.596,201.715,186.954c0,30.126-8.401,58.447-23.246,83.253
				C985.627,1355.832,999.106,1320.564,999.106,1282.396z"/>
			<g>
				<path style="fill:#FFFFFF;" d="M749.678,1356.516c7.125,16.056-6.79,35.593-31.17,43.689
					c-24.492,8.133-50.292,1.661-57.536-14.509c-7.253-16.192,6.894-35.861,31.505-43.88
					C716.976,1333.833,742.544,1340.438,749.678,1356.516z"/>
				<path style="fill:#FFFFFF;" d="M899.405,1302.449c6.927,15.867-6.601,35.061-30.303,42.921
					c-23.809,7.895-48.889,1.384-55.929-14.594c-7.049-16,6.701-35.321,30.624-43.105
					C867.612,1279.921,892.47,1286.56,899.405,1302.449z"/>
				<g>
					<path style="fill:#FFFFFF;" d="M751.531,1363.467l-10.321-0.175v-148.519c0-4.62,3.351-8.59,8.333-9.878l135.613-35.035
						c3.588-0.929,7.556-0.236,10.614,1.844c3.056,2.081,4.88,5.331,4.88,8.697v125.914l-10.035-0.227v-126.034
						c0-0.699-0.456-1.112-0.729-1.298c-0.273-0.186-0.84-0.467-1.583-0.274l-135.531,35.135c-0.742,0.193-1.241,0.784-1.241,1.473
						V1363.467z"/>
					<polygon style="fill:#FFFFFF;" points="747.887,1252.722 744.86,1243.955 894.163,1207.841 897.106,1216.496 					"/>
				</g>
			</g>
		</g>
		<g>
			<g>
				
					<linearGradient id="SVGID_00000093891510264045846390000010354194435163039904_" gradientUnits="userSpaceOnUse" x1="917.8979" y1="1864.3049" x2="607.04" y2="2168.2236">
					<stop  offset="0" style="stop-color:#311944"/>
					<stop  offset="1" style="stop-color:#A03976"/>
				</linearGradient>
				<path style="fill:url(#SVGID_00000093891510264045846390000010354194435163039904_);" d="M973.154,1627.446
					c115.996,5.095,207.984,91.349,207.984,192.764c0,101.415-91.989,183.197-207.984,182.654
					c-118.879-0.557-217.44-86.969-217.44-192.994S854.275,1622.224,973.154,1627.446z"/>
			</g>
			<g>
				
					<linearGradient id="SVGID_00000134234096849726019730000007890485481752457913_" gradientUnits="userSpaceOnUse" x1="889.3813" y1="1677.3374" x2="1254.5261" y2="2196.335">
					<stop  offset="0" style="stop-color:#FFC444"/>
					<stop  offset="0.9964" style="stop-color:#F36F56"/>
				</linearGradient>
				<path style="fill:url(#SVGID_00000134234096849726019730000007890485481752457913_);" d="M979.09,1610.363
					c115.996,5.095,207.985,91.349,207.985,192.764c0,101.415-91.989,183.197-207.985,182.654
					c-118.879-0.557-217.44-86.969-217.44-192.994S860.211,1605.141,979.09,1610.363z"/>
			</g>
			<g style="opacity:0.3;">
				<path style="fill:#FFFFFF;" d="M978.471,1634.917c100.813,4.428,180.761,79.393,180.761,167.532
					s-79.948,159.217-180.761,158.745c-103.318-0.484-188.978-75.585-188.978-167.732
					C789.493,1701.316,875.153,1630.379,978.471,1634.917z"/>
			</g>
			<path style="opacity:0.3;fill:#FFFFFF;" d="M1159.232,1802.45c0-88.14-79.948-163.104-180.761-167.533
				c-72.577-3.189-136.393,30.895-167.971,83.384c34.215-42.649,91.725-69.126,156.099-66.301
				c100.813,4.429,180.76,79.393,180.76,167.533c0,26.997-7.529,52.376-20.831,74.604
				C1147.153,1868.257,1159.232,1836.652,1159.232,1802.45z"/>
			<g>
				<ellipse style="fill:#FFFFFF;" cx="972.739" cy="1793.068" rx="118.173" ry="90.541"/>
				<path style="fill:#FFFFFF;" d="M1018.302,1866.778c0,0,15.216,23.783,26.816,32.424c0.655,0.49,0.932,1.339,0.688,2.12
					c-0.244,0.78-0.953,1.322-1.77,1.352c-43.04,1.589-63.09-24.53-66.083-33.309
					C1000.248,1870.684,1018.302,1866.778,1018.302,1866.778z"/>
			</g>
		</g>
		<g>
			<g>
				
					<linearGradient id="SVGID_00000128458096952540797310000006065375094587561128_" gradientUnits="userSpaceOnUse" x1="1379.911" y1="611.8141" x2="522.4818" y2="1420.3403">
					<stop  offset="0" style="stop-color:#311944"/>
					<stop  offset="1" style="stop-color:#893976"/>
				</linearGradient>
				<path style="fill:url(#SVGID_00000128458096952540797310000006065375094587561128_);" d="M1302.035,684.564
					c76.124,77.989,76.124,200.905,0,276.044c-76.962,75.968-203.56,75.54-282.787-2.498c-80.118-78.914-80.118-205.713,0-281.63
					C1098.474,601.407,1225.072,605.716,1302.035,684.564z"/>
			</g>
			<g>
				
					<linearGradient id="SVGID_00000134239097706019572580000006745395459004715441_" gradientUnits="userSpaceOnUse" x1="1063.406" y1="633.6081" x2="1338.1226" y2="1058.6959">
					<stop  offset="0" style="stop-color:#FF9085"/>
					<stop  offset="1" style="stop-color:#FB6FBB"/>
				</linearGradient>
				<path style="fill:url(#SVGID_00000134239097706019572580000006745395459004715441_);" d="M1315.859,667.878
					c76.124,77.988,76.124,200.903,0,276.044c-76.962,75.968-203.559,75.54-282.787-2.498c-80.118-78.915-80.118-205.714,0-281.63
					C1112.3,584.721,1238.897,589.03,1315.859,667.878z"/>
			</g>
			<g style="opacity:0.5;">
				<path style="fill:#FFFFFF;" d="M1288.129,694.144c61.351,62.854,61.351,161.916,0,222.474
					c-62.027,61.225-164.057,60.88-227.909-2.013c-64.57-63.601-64.57-165.793,0-226.977
					C1124.073,627.124,1226.103,630.598,1288.129,694.144z"/>
			</g>
			<path style="opacity:0.5;fill:#FFFFFF;" d="M1288.129,694.145c-62.027-63.55-164.057-67.021-227.909-6.519
				c-0.594,0.564-1.144,1.156-1.726,1.724c63.482-41.543,150.5-32.661,205.772,23.964c61.351,62.852,61.351,161.914,0,222.474
				c-0.174,0.172-0.359,0.329-0.535,0.501c8.633-5.64,16.818-12.192,24.398-19.671
				C1349.48,856.059,1349.48,756.998,1288.129,694.145z"/>
			<g>
				<polygon style="fill:#FFFFFF;" points="1240.691,894.099 1270.402,894.465 1270.402,731.11 1240.691,730.398 				"/>
				<polygon style="fill:#FFFFFF;" points="1187.559,893.443 1217.495,893.812 1217.495,811.827 1187.559,811.284 				"/>
				<polygon style="fill:#FFFFFF;" points="1134.023,892.783 1164.187,893.155 1164.187,712.969 1134.023,712.212 				"/>
				<polygon style="fill:#FFFFFF;" points="1080.079,892.118 1110.473,892.492 1110.473,738.451 1080.079,737.746 				"/>
			</g>
		</g>
		<g>
			<g>
				<g>
					
						<linearGradient id="SVGID_00000101087608100417676760000015190253868006744481_" gradientUnits="userSpaceOnUse" x1="1920.3453" y1="2196.0825" x2="2149.481" y2="2196.0825">
						<stop  offset="0" style="stop-color:#40447E"/>
						<stop  offset="0.9964" style="stop-color:#3C3B6B"/>
					</linearGradient>
					<path style="fill:url(#SVGID_00000101087608100417676760000015190253868006744481_);" d="M2134.832,2319.676
						c-0.484-1.849-48.917-185.403-76.987-221.73c-20.828-26.928-103.405,6.13-130.7,19.837l-6.8-13.532
						c11.906-5.982,117.248-57.266,149.479-15.563c29.941,38.741,77.642,219.467,79.657,227.143L2134.832,2319.676z"/>
				</g>
				<g>
					
						<rect x="2132.693" y="1987.255" transform="matrix(0.9533 -0.3021 0.3021 0.9533 -548.3224 747.4721)" style="fill:#97A6B7;" width="18.931" height="318.036"/>
					
						<rect x="2161.566" y="1978.104" transform="matrix(0.9533 -0.3021 0.3021 0.9533 -544.2086 755.7678)" style="fill:#97A6B7;" width="18.931" height="318.036"/>
				</g>
				<g>
					
						<linearGradient id="SVGID_00000074430465523497338740000014280199310667707543_" gradientUnits="userSpaceOnUse" x1="2885.9956" y1="3260.3823" x2="2923.856" y2="3260.3823" gradientTransform="matrix(-0.347 -0.9379 0.9379 -0.347 -156.8711 5977.5234)">
						<stop  offset="0" style="stop-color:#40447E"/>
						<stop  offset="0.9964" style="stop-color:#3C3B6B"/>
					</linearGradient>
					<path style="fill:url(#SVGID_00000074430465523497338740000014280199310667707543_);" d="M1941.188,2104.497
						c3.507,9.479-1.334,20.006-10.813,23.512l-61.549,22.771c-9.479,3.507-20.006-1.334-23.512-10.813l-0.438-1.184
						c-3.507-9.479,1.334-20.005,10.813-23.512l61.549-22.771c9.479-3.507,20.005,1.334,23.512,10.813L1941.188,2104.497z"/>
					
						<linearGradient id="SVGID_00000070830506934822148990000002425555185456595585_" gradientUnits="userSpaceOnUse" x1="2825.4197" y1="3095.6904" x2="2980.6472" y2="3095.6904" gradientTransform="matrix(-0.347 -0.9379 0.9379 -0.347 -156.8711 5977.5234)">
						<stop  offset="0" style="stop-color:#40447E"/>
						<stop  offset="0.9964" style="stop-color:#3C3B6B"/>
					</linearGradient>
					<path style="fill:url(#SVGID_00000070830506934822148990000002425555185456595585_);" d="M1612.867,2144.555l202.402-74.883
						c18.642-6.897,36.268-0.176,42.797,17.471l29.887,80.783c6.529,17.647-0.179,40.436-18.821,47.333l-202.402,74.883
						c-18.642,6.897-42.118-4.725-48.646-22.372l-29.887-80.783C1581.667,2169.34,1594.225,2151.452,1612.867,2144.555z"/>
					
						<linearGradient id="SVGID_00000091712246169364920630000005386451240633855138_" gradientUnits="userSpaceOnUse" x1="2810.2754" y1="3226.3081" x2="2999.5764" y2="3226.3081" gradientTransform="matrix(-0.347 -0.9379 0.9379 -0.347 -156.8711 5977.5234)">
						<stop  offset="0" style="stop-color:#AA80F9"/>
						<stop  offset="0.9964" style="stop-color:#6165D7"/>
					</linearGradient>
					<path style="fill:url(#SVGID_00000091712246169364920630000005386451240633855138_);" d="M1904.313,2201.234
						c3.084,8.335-1.173,17.591-9.508,20.675l-1.775,0.657c-8.335,3.083-17.591-1.173-20.675-9.508l-54.52-147.363
						c-3.084-8.335,1.173-17.591,9.508-20.675l1.775-0.657c8.335-3.084,17.591,1.173,20.675,9.508L1904.313,2201.234z"/>
					<path style="fill:#97A6B7;" d="M1612.867,2144.555l92.324-34.157l53.863,145.587l-92.324,34.157
						c-18.642,6.897-42.118-4.725-48.646-22.372l-29.887-80.783C1581.667,2169.34,1594.225,2151.452,1612.867,2144.555z"/>
					<g>
						<g>
							<path style="opacity:0.4;fill:#97A6B7;" d="M1645.372,2270.374c2.656-0.983,5.605,0.374,6.588,3.03
								c0.982,2.656-0.374,5.605-3.03,6.587s-5.605-0.374-6.588-3.03C1641.36,2274.306,1642.716,2271.357,1645.372,2270.374z"/>
							<path style="opacity:0.4;fill:#97A6B7;" d="M1638.803,2252.62c2.656-0.982,5.605,0.374,6.588,3.03
								c0.983,2.656-0.374,5.605-3.03,6.588c-2.656,0.982-5.605-0.374-6.588-3.03
								C1634.791,2256.552,1636.147,2253.602,1638.803,2252.62z"/>
							<path style="opacity:0.4;fill:#97A6B7;" d="M1632.234,2234.865c2.656-0.982,5.605,0.374,6.588,3.03
								c0.983,2.656-0.374,5.605-3.029,6.588c-2.656,0.982-5.605-0.374-6.588-3.03S1629.579,2235.848,1632.234,2234.865z"/>
							<path style="opacity:0.4;fill:#97A6B7;" d="M1625.666,2217.111c2.656-0.983,5.605,0.374,6.587,3.029
								c0.983,2.656-0.374,5.605-3.029,6.588c-2.656,0.983-5.605-0.374-6.588-3.03
								C1621.653,2221.042,1623.01,2218.093,1625.666,2217.111z"/>
							<path style="opacity:0.4;fill:#97A6B7;" d="M1619.097,2199.356c2.656-0.983,5.605,0.374,6.588,3.03
								c0.983,2.656-0.374,5.605-3.03,6.587c-2.656,0.983-5.605-0.374-6.588-3.029
								C1615.085,2203.288,1616.441,2200.338,1619.097,2199.356z"/>
							<path style="opacity:0.4;fill:#97A6B7;" d="M1612.528,2181.601c2.656-0.982,5.605,0.374,6.588,3.03
								c0.982,2.656-0.374,5.605-3.03,6.588c-2.656,0.982-5.605-0.374-6.588-3.03
								C1608.516,2185.533,1609.873,2182.584,1612.528,2181.601z"/>
							<path style="opacity:0.4;fill:#97A6B7;" d="M1605.959,2163.847c2.656-0.982,5.605,0.374,6.588,3.03
								c0.982,2.656-0.374,5.605-3.03,6.588c-2.656,0.982-5.605-0.374-6.588-3.03
								C1601.948,2167.779,1603.304,2164.829,1605.959,2163.847z"/>
						</g>
						<g>
							<path style="opacity:0.4;fill:#97A6B7;" d="M1662.203,2272.221c2.656-0.982,5.605,0.374,6.588,3.03
								c0.983,2.656-0.374,5.605-3.03,6.588c-2.656,0.982-5.605-0.374-6.588-3.03S1659.547,2273.204,1662.203,2272.221z"/>
							<path style="opacity:0.4;fill:#97A6B7;" d="M1655.634,2254.467c2.656-0.983,5.605,0.374,6.587,3.03
								c0.983,2.656-0.374,5.605-3.029,6.587c-2.656,0.983-5.605-0.374-6.588-3.03
								C1651.622,2258.398,1652.978,2255.449,1655.634,2254.467z"/>
							<path style="opacity:0.4;fill:#97A6B7;" d="M1649.065,2236.712c2.656-0.982,5.605,0.374,6.588,3.03s-0.374,5.605-3.03,6.588
								c-2.656,0.982-5.605-0.374-6.588-3.03C1645.053,2240.644,1646.41,2237.694,1649.065,2236.712z"/>
							<path style="opacity:0.4;fill:#97A6B7;" d="M1642.497,2218.958c2.656-0.983,5.605,0.374,6.588,3.029
								c0.983,2.656-0.374,5.605-3.03,6.588c-2.656,0.982-5.605-0.374-6.588-3.03
								C1638.485,2222.889,1639.841,2219.94,1642.497,2218.958z"/>
							<path style="opacity:0.4;fill:#97A6B7;" d="M1635.928,2201.203c2.656-0.983,5.605,0.374,6.588,3.03
								c0.982,2.656-0.374,5.605-3.03,6.587c-2.656,0.983-5.605-0.374-6.588-3.03
								C1631.916,2205.135,1633.272,2202.185,1635.928,2201.203z"/>
							<path style="opacity:0.4;fill:#97A6B7;" d="M1629.359,2183.448c2.656-0.982,5.605,0.374,6.588,3.03
								c0.983,2.656-0.374,5.605-3.03,6.587c-2.656,0.983-5.605-0.374-6.588-3.029
								C1625.347,2187.38,1626.704,2184.431,1629.359,2183.448z"/>
							<path style="opacity:0.4;fill:#97A6B7;" d="M1622.791,2165.694c2.656-0.982,5.605,0.374,6.588,3.03
								c0.983,2.656-0.374,5.605-3.029,6.588c-2.656,0.982-5.605-0.374-6.588-3.03S1620.135,2166.676,1622.791,2165.694z"/>
							<path style="opacity:0.4;fill:#97A6B7;" d="M1616.222,2147.939c2.656-0.983,5.605,0.374,6.587,3.029
								c0.983,2.656-0.374,5.605-3.029,6.588c-2.656,0.983-5.605-0.374-6.588-3.03
								C1612.21,2151.871,1613.566,2148.922,1616.222,2147.939z"/>
						</g>
					</g>
					<g>
						<g>
							<path style="opacity:0.4;fill:#97A6B7;" d="M1675.48,2259.235c2.656-0.983,5.605,0.374,6.588,3.03
								c0.983,2.656-0.374,5.605-3.03,6.587c-2.656,0.983-5.605-0.374-6.588-3.03
								C1671.468,2263.167,1672.825,2260.217,1675.48,2259.235z"/>
							<path style="opacity:0.4;fill:#97A6B7;" d="M1668.912,2241.48c2.656-0.982,5.605,0.374,6.588,3.03
								c0.983,2.656-0.374,5.605-3.029,6.588c-2.656,0.982-5.605-0.374-6.588-3.03
								C1664.9,2245.412,1666.256,2242.463,1668.912,2241.48z"/>
							<path style="opacity:0.4;fill:#97A6B7;" d="M1662.343,2223.726c2.656-0.982,5.605,0.374,6.588,3.03
								c0.983,2.656-0.374,5.605-3.029,6.588c-2.656,0.982-5.605-0.374-6.588-3.03
								C1658.331,2227.657,1659.687,2224.708,1662.343,2223.726z"/>
							<path style="opacity:0.4;fill:#97A6B7;" d="M1655.774,2205.971c2.656-0.983,5.605,0.374,6.588,3.029
								c0.982,2.656-0.374,5.605-3.03,6.588c-2.656,0.983-5.605-0.374-6.588-3.03
								C1651.762,2209.903,1653.119,2206.954,1655.774,2205.971z"/>
							<path style="opacity:0.4;fill:#97A6B7;" d="M1649.206,2188.217c2.656-0.983,5.605,0.374,6.588,3.03
								c0.983,2.656-0.374,5.605-3.03,6.587c-2.656,0.983-5.605-0.374-6.588-3.029
								C1645.194,2192.148,1646.55,2189.199,1649.206,2188.217z"/>
							<path style="opacity:0.4;fill:#97A6B7;" d="M1642.637,2170.462c2.656-0.982,5.605,0.374,6.588,3.03
								c0.983,2.656-0.374,5.605-3.03,6.588c-2.656,0.982-5.605-0.374-6.587-3.03
								C1638.625,2174.394,1639.981,2171.445,1642.637,2170.462z"/>
							<path style="opacity:0.4;fill:#97A6B7;" d="M1636.068,2152.708c2.656-0.983,5.605,0.374,6.588,3.029
								c0.983,2.656-0.374,5.605-3.03,6.588c-2.656,0.982-5.605-0.374-6.588-3.03
								C1632.056,2156.639,1633.413,2153.69,1636.068,2152.708z"/>
						</g>
						<g>
							<path style="opacity:0.4;fill:#97A6B7;" d="M1692.312,2261.082c2.656-0.983,5.605,0.374,6.588,3.029
								c0.983,2.656-0.374,5.605-3.029,6.588c-2.656,0.982-5.605-0.374-6.588-3.03
								C1688.3,2265.013,1689.656,2262.064,1692.312,2261.082z"/>
							<path style="opacity:0.4;fill:#97A6B7;" d="M1685.743,2243.327c2.656-0.983,5.605,0.374,6.588,3.03
								c0.982,2.656-0.374,5.605-3.03,6.587c-2.656,0.983-5.605-0.374-6.588-3.03
								C1681.731,2247.259,1683.087,2244.31,1685.743,2243.327z"/>
							<path style="opacity:0.4;fill:#97A6B7;" d="M1679.174,2225.573c2.656-0.982,5.605,0.374,6.588,3.03
								c0.982,2.656-0.374,5.605-3.03,6.588c-2.656,0.982-5.605-0.374-6.588-3.03
								C1675.162,2229.504,1676.519,2226.555,1679.174,2225.573z"/>
							<path style="opacity:0.4;fill:#97A6B7;" d="M1672.605,2207.818c2.656-0.983,5.605,0.374,6.588,3.029
								c0.983,2.656-0.374,5.605-3.03,6.588c-2.656,0.982-5.605-0.374-6.587-3.03
								C1668.593,2211.75,1669.95,2208.801,1672.605,2207.818z"/>
							<path style="opacity:0.4;fill:#97A6B7;" d="M1666.037,2190.063c2.656-0.983,5.605,0.374,6.588,3.03
								c0.983,2.656-0.374,5.605-3.029,6.587c-2.656,0.983-5.605-0.374-6.588-3.03
								C1662.025,2193.995,1663.381,2191.046,1666.037,2190.063z"/>
							<path style="opacity:0.4;fill:#97A6B7;" d="M1659.468,2172.309c2.656-0.982,5.605,0.374,6.588,3.03
								c0.983,2.656-0.374,5.605-3.029,6.587c-2.656,0.983-5.605-0.374-6.588-3.029
								C1655.456,2176.241,1656.812,2173.292,1659.468,2172.309z"/>
							<path style="opacity:0.4;fill:#97A6B7;" d="M1652.899,2154.554c2.656-0.982,5.605,0.374,6.588,3.03
								c0.982,2.656-0.374,5.605-3.03,6.588c-2.656,0.982-5.605-0.374-6.588-3.03
								C1648.887,2158.486,1650.244,2155.537,1652.899,2154.554z"/>
							<path style="opacity:0.4;fill:#97A6B7;" d="M1646.331,2136.8c2.656-0.983,5.605,0.374,6.588,3.029
								c0.982,2.656-0.374,5.605-3.03,6.588c-2.656,0.983-5.605-0.374-6.588-3.03
								C1642.319,2140.732,1643.675,2137.782,1646.331,2136.8z"/>
						</g>
					</g>
					<g>
						<g>
							<path style="opacity:0.4;fill:#97A6B7;" d="M1705.589,2248.095c2.656-0.983,5.605,0.374,6.588,3.03
								c0.983,2.656-0.374,5.605-3.03,6.587c-2.656,0.983-5.605-0.374-6.588-3.03
								C1701.577,2252.027,1702.933,2249.078,1705.589,2248.095z"/>
							<path style="opacity:0.4;fill:#97A6B7;" d="M1699.021,2230.341c2.656-0.982,5.605,0.374,6.588,3.03
								c0.982,2.656-0.374,5.605-3.03,6.588c-2.656,0.982-5.605-0.374-6.588-3.03
								C1695.009,2234.273,1696.365,2231.323,1699.021,2230.341z"/>
							<path style="opacity:0.4;fill:#97A6B7;" d="M1692.452,2212.586c2.656-0.982,5.605,0.374,6.588,3.03
								c0.982,2.656-0.374,5.605-3.03,6.588c-2.656,0.982-5.605-0.374-6.588-3.03
								C1688.44,2216.518,1689.796,2213.569,1692.452,2212.586z"/>
							<path style="opacity:0.4;fill:#97A6B7;" d="M1685.883,2194.832c2.656-0.983,5.605,0.374,6.588,3.029
								c0.983,2.656-0.374,5.605-3.03,6.588c-2.656,0.983-5.605-0.374-6.588-3.03
								C1681.871,2198.764,1683.228,2195.814,1685.883,2194.832z"/>
							<path style="opacity:0.4;fill:#97A6B7;" d="M1679.314,2177.077c2.656-0.983,5.605,0.374,6.588,3.03
								c0.983,2.656-0.374,5.605-3.029,6.587c-2.656,0.983-5.605-0.374-6.588-3.029
								C1675.302,2181.009,1676.659,2178.06,1679.314,2177.077z"/>
							<path style="opacity:0.4;fill:#97A6B7;" d="M1672.746,2159.323c2.656-0.982,5.605,0.374,6.587,3.03
								c0.983,2.656-0.374,5.605-3.029,6.588c-2.656,0.982-5.605-0.374-6.588-3.03
								C1668.734,2163.254,1670.09,2160.305,1672.746,2159.323z"/>
							<path style="opacity:0.4;fill:#97A6B7;" d="M1666.177,2141.568c2.656-0.983,5.605,0.374,6.588,3.029
								c0.983,2.656-0.374,5.605-3.03,6.588c-2.656,0.982-5.605-0.374-6.588-3.03
								C1662.165,2145.5,1663.521,2142.551,1666.177,2141.568z"/>
						</g>
						<g>
							<path style="opacity:0.4;fill:#97A6B7;" d="M1722.42,2249.942c2.656-0.983,5.605,0.374,6.588,3.029
								c0.982,2.656-0.374,5.605-3.03,6.588s-5.605-0.374-6.588-3.03C1718.408,2253.874,1719.765,2250.925,1722.42,2249.942z"/>
							<path style="opacity:0.4;fill:#97A6B7;" d="M1715.852,2232.188c2.656-0.983,5.605,0.374,6.588,3.03
								c0.983,2.656-0.374,5.605-3.03,6.587c-2.656,0.983-5.605-0.374-6.588-3.03
								C1711.84,2236.12,1713.196,2233.17,1715.852,2232.188z"/>
							<path style="opacity:0.4;fill:#97A6B7;" d="M1709.283,2214.433c2.656-0.982,5.605,0.374,6.588,3.03s-0.374,5.605-3.03,6.588
								c-2.656,0.982-5.605-0.374-6.588-3.03S1706.627,2215.416,1709.283,2214.433z"/>
							<path style="opacity:0.4;fill:#97A6B7;" d="M1702.714,2196.679c2.656-0.983,5.605,0.374,6.587,3.029
								c0.983,2.656-0.374,5.605-3.029,6.588c-2.656,0.982-5.605-0.374-6.588-3.03
								C1698.702,2200.61,1700.059,2197.661,1702.714,2196.679z"/>
							<path style="opacity:0.4;fill:#97A6B7;" d="M1696.146,2178.924c2.656-0.983,5.605,0.374,6.588,3.03
								c0.983,2.656-0.374,5.605-3.03,6.587c-2.656,0.983-5.605-0.374-6.588-3.03
								C1692.134,2182.856,1693.49,2179.906,1696.146,2178.924z"/>
							<path style="opacity:0.4;fill:#97A6B7;" d="M1689.577,2161.169c2.656-0.982,5.605,0.374,6.588,3.03
								c0.983,2.656-0.374,5.605-3.03,6.588c-2.656,0.982-5.605-0.374-6.588-3.03
								C1685.565,2165.101,1686.921,2162.152,1689.577,2161.169z"/>
							<path style="opacity:0.4;fill:#97A6B7;" d="M1683.008,2143.415c2.656-0.982,5.605,0.374,6.588,3.03
								c0.982,2.656-0.374,5.605-3.03,6.588c-2.656,0.982-5.605-0.374-6.588-3.03
								C1678.996,2147.347,1680.353,2144.397,1683.008,2143.415z"/>
							<path style="opacity:0.4;fill:#97A6B7;" d="M1676.439,2125.66c2.656-0.983,5.605,0.374,6.588,3.029
								c0.983,2.656-0.374,5.605-3.03,6.588c-2.656,0.983-5.605-0.374-6.588-3.03
								C1672.427,2129.592,1673.784,2126.643,1676.439,2125.66z"/>
						</g>
					</g>
					<g>
						<g>
							<path style="opacity:0.4;fill:#97A6B7;" d="M1735.698,2236.956c2.656-0.983,5.605,0.374,6.588,3.03
								c0.982,2.656-0.374,5.605-3.03,6.587c-2.656,0.983-5.605-0.374-6.588-3.03
								C1731.686,2240.888,1733.042,2237.938,1735.698,2236.956z"/>
							<path style="opacity:0.4;fill:#97A6B7;" d="M1729.129,2219.201c2.656-0.982,5.605,0.374,6.588,3.03s-0.374,5.605-3.03,6.588
								c-2.656,0.982-5.605-0.374-6.587-3.03C1725.117,2223.133,1726.474,2220.184,1729.129,2219.201z"/>
							<path style="opacity:0.4;fill:#97A6B7;" d="M1722.561,2201.447c2.656-0.983,5.605,0.374,6.588,3.029
								c0.983,2.656-0.374,5.605-3.03,6.588c-2.656,0.982-5.605-0.374-6.588-3.03
								C1718.549,2205.379,1719.905,2202.429,1722.561,2201.447z"/>
							<path style="opacity:0.4;fill:#97A6B7;" d="M1715.992,2183.692c2.656-0.983,5.605,0.374,6.588,3.029
								c0.983,2.656-0.374,5.605-3.029,6.588c-2.656,0.983-5.605-0.374-6.588-3.03
								C1711.98,2187.624,1713.336,2184.675,1715.992,2183.692z"/>
							<path style="opacity:0.4;fill:#97A6B7;" d="M1709.423,2165.938c2.656-0.983,5.605,0.374,6.588,3.03
								c0.983,2.656-0.374,5.605-3.029,6.587c-2.656,0.983-5.605-0.374-6.588-3.029
								C1705.411,2169.87,1706.768,2166.92,1709.423,2165.938z"/>
							<path style="opacity:0.4;fill:#97A6B7;" d="M1702.855,2148.183c2.656-0.982,5.605,0.374,6.588,3.03
								c0.982,2.656-0.374,5.605-3.03,6.588c-2.656,0.982-5.605-0.374-6.588-3.03S1700.199,2149.166,1702.855,2148.183z"/>
							<path style="opacity:0.4;fill:#97A6B7;" d="M1696.286,2130.429c2.656-0.983,5.605,0.374,6.588,3.029
								c0.983,2.656-0.374,5.605-3.03,6.588c-2.656,0.983-5.605-0.374-6.588-3.03
								C1692.274,2134.361,1693.63,2131.411,1696.286,2130.429z"/>
						</g>
						<g>
							<path style="opacity:0.4;fill:#97A6B7;" d="M1752.529,2238.803c2.656-0.983,5.605,0.374,6.588,3.03
								c0.983,2.656-0.374,5.605-3.029,6.587c-2.656,0.983-5.605-0.374-6.588-3.03
								C1748.517,2242.735,1749.873,2239.785,1752.529,2238.803z"/>
							<path style="opacity:0.4;fill:#97A6B7;" d="M1745.96,2221.048c2.656-0.982,5.605,0.374,6.588,3.03
								c0.983,2.656-0.374,5.605-3.029,6.587c-2.656,0.983-5.605-0.374-6.588-3.029
								C1741.948,2224.98,1743.305,2222.031,1745.96,2221.048z"/>
							<path style="opacity:0.4;fill:#97A6B7;" d="M1739.392,2203.294c2.656-0.982,5.605,0.374,6.588,3.03
								c0.983,2.656-0.374,5.605-3.029,6.588c-2.656,0.982-5.605-0.374-6.588-3.03
								C1735.38,2207.226,1736.736,2204.276,1739.392,2203.294z"/>
							<path style="opacity:0.4;fill:#97A6B7;" d="M1732.823,2185.539c2.656-0.983,5.605,0.374,6.588,3.029
								c0.982,2.656-0.374,5.605-3.03,6.588c-2.656,0.983-5.605-0.374-6.588-3.03
								C1728.811,2189.471,1730.167,2186.522,1732.823,2185.539z"/>
							<path style="opacity:0.4;fill:#97A6B7;" d="M1726.254,2167.785c2.656-0.983,5.605,0.374,6.588,3.03
								c0.982,2.656-0.374,5.605-3.03,6.587c-2.656,0.983-5.605-0.374-6.588-3.029
								C1722.242,2171.717,1723.599,2168.767,1726.254,2167.785z"/>
							<path style="opacity:0.4;fill:#97A6B7;" d="M1719.686,2150.03c2.656-0.982,5.605,0.374,6.588,3.03
								c0.983,2.656-0.374,5.605-3.03,6.588c-2.656,0.982-5.605-0.374-6.587-3.03
								C1715.674,2153.962,1717.03,2151.013,1719.686,2150.03z"/>
							<path style="opacity:0.4;fill:#97A6B7;" d="M1713.117,2132.275c2.656-0.982,5.605,0.374,6.588,3.03
								c0.983,2.656-0.374,5.605-3.029,6.588c-2.656,0.982-5.605-0.374-6.588-3.03
								C1709.105,2136.208,1710.461,2133.258,1713.117,2132.275z"/>
							<path style="opacity:0.4;fill:#97A6B7;" d="M1706.548,2114.521c2.656-0.983,5.605,0.374,6.588,3.029
								c0.983,2.656-0.374,5.605-3.029,6.588c-2.656,0.983-5.605-0.374-6.588-3.03
								C1702.536,2118.453,1703.893,2115.503,1706.548,2114.521z"/>
						</g>
					</g>
					
						<linearGradient id="SVGID_00000081608578872916612510000011387905412893067652_" gradientUnits="userSpaceOnUse" x1="2810.2759" y1="3086.2253" x2="2999.5769" y2="3086.2253" gradientTransform="matrix(-0.347 -0.9379 0.9379 -0.347 -156.8711 5977.5234)">
						<stop  offset="0" style="stop-color:#AA80F9"/>
						<stop  offset="0.9964" style="stop-color:#6165D7"/>
					</linearGradient>
					<path style="fill:url(#SVGID_00000081608578872916612510000011387905412893067652_);" d="M1772.929,2249.842
						c3.083,8.335-1.173,17.591-9.508,20.675l-1.776,0.657c-8.335,3.083-17.591-1.173-20.675-9.508l-54.52-147.363
						c-3.083-8.335,1.173-17.591,9.508-20.675l1.775-0.657c8.335-3.083,17.591,1.173,20.675,9.508L1772.929,2249.842z"/>
				</g>
				<path style="fill:#97A6B7;" d="M1791.012,2095.303l-31.727-92.762l-25.076,8.578l31.728,92.762
					c1.425,4.167,5.958,6.389,10.125,4.964l9.987-3.417C1790.215,2104.003,1792.437,2099.47,1791.012,2095.303z"/>
				<g>
					
						<rect x="1754.607" y="1958.084" transform="matrix(0.9991 -0.0434 0.0434 0.9991 -83.542 84.8557)" style="fill:#97A6B7;" width="318.036" height="18.931"/>
					
						<rect x="1755.92" y="1988.345" transform="matrix(0.9991 -0.0434 0.0434 0.9991 -84.8527 84.9406)" style="fill:#97A6B7;" width="318.036" height="18.931"/>
				</g>
				<g>
					
						<linearGradient id="SVGID_00000002365727640134688330000000275857696636012953_" gradientUnits="userSpaceOnUse" x1="1704.1506" y1="1992.0059" x2="1779.0734" y2="1992.0059">
						<stop  offset="0" style="stop-color:#40447E"/>
						<stop  offset="0.9964" style="stop-color:#3C3B6B"/>
					</linearGradient>
					
						<circle style="fill:url(#SVGID_00000002365727640134688330000000275857696636012953_);" cx="1741.612" cy="1992.006" r="37.461"/>
					
						<ellipse transform="matrix(0.1602 -0.9871 0.9871 0.1602 -503.698 3392.6702)" style="opacity:0.3;fill:#FFFFFF;" cx="1741.954" cy="1992.348" rx="24.11" ry="24.111"/>
				</g>
				<g>
					
						<linearGradient id="SVGID_00000046324976738152027760000014606795359936351405_" gradientUnits="userSpaceOnUse" x1="2052.4758" y1="1970.1051" x2="2156.0554" y2="1970.1051">
						<stop  offset="0" style="stop-color:#40447E"/>
						<stop  offset="0.9964" style="stop-color:#3C3B6B"/>
					</linearGradient>
					
						<circle style="fill:url(#SVGID_00000046324976738152027760000014606795359936351405_);" cx="2104.266" cy="1970.105" r="51.79"/>
					
						<ellipse transform="matrix(0.7071 -0.7071 0.7071 0.7071 -776.9456 2065.4441)" style="opacity:0.3;fill:#FFFFFF;" cx="2104.739" cy="1970.578" rx="33.332" ry="33.332"/>
				</g>
				
					<linearGradient id="SVGID_00000143589273140105361140000000224806403747169414_" gradientUnits="userSpaceOnUse" x1="1772.7744" y1="2097.3289" x2="1781.0566" y2="2097.3289">
					<stop  offset="0" style="stop-color:#40447E"/>
					<stop  offset="0.9964" style="stop-color:#3C3B6B"/>
				</linearGradient>
				
					<circle style="fill:url(#SVGID_00000143589273140105361140000000224806403747169414_);" cx="1776.916" cy="2097.329" r="4.141"/>
			</g>
			<g>
				<g>
					
						<linearGradient id="SVGID_00000040562090053891552680000016926752476606831527_" gradientUnits="userSpaceOnUse" x1="883.4004" y1="2578.7256" x2="1956.8417" y2="3101.3228">
						<stop  offset="0" style="stop-color:#FF9085"/>
						<stop  offset="1" style="stop-color:#FB6FBB"/>
					</linearGradient>
					<path style="fill:url(#SVGID_00000040562090053891552680000016926752476606831527_);" d="M1533.573,3037.39
						c42.123-29.269,131.492-100.504,171.256-222.456c63.033-193.313-28.131-423.435-206.567-531.423
						c-211.48-127.987-440.164-20.638-467.864-7.063c-158.21,77.538-224.367,214.729-261.298,291.312
						c-64.852,134.483-154.153,422.837-22.952,534.954c76.79,65.621,198.153,44.413,340.781,19.491
						c144.311-25.216,181.322-71.984,190.642-84.816c35.445-48.8,18.843-86.551,33.412-171.32
						c23.581-137.211,110.102-288.65,175.854-283.842c53.564,3.917,92.214,111.442,99.237,185.229
						c11.974,125.808-61.816,218.473-81.473,241.704C1514.26,3018.571,1523.917,3027.981,1533.573,3037.39z"/>
					
						<linearGradient id="SVGID_00000101809694092469781930000009131151625945752212_" gradientUnits="userSpaceOnUse" x1="696.7001" y1="2815.4297" x2="1280.2273" y2="2815.4297">
						<stop  offset="0" style="stop-color:#FF9085"/>
						<stop  offset="1" style="stop-color:#FB6FBB"/>
					</linearGradient>
					<path style="opacity:0.2;fill:url(#SVGID_00000101809694092469781930000009131151625945752212_);" d="M1113.378,2837.886
						c-57.486-90.952,123.925-251.702,75.918-323.091c-33.878-50.377-166.177-32.729-256.001,14.124
						c-162.06,84.533-205.167,274.203-220.691,342.512c-12.933,56.902-16.95,110.759-15.681,159.841
						c10.764,27.875,26.76,52.245,49.226,71.444c76.79,65.621,198.153,44.413,340.781,19.491
						c144.311-25.216,181.322-71.984,190.642-84.816c0.927-1.276,1.798-2.541,2.655-3.802
						c-0.352-47.495-11.255-91.85-41.497-123.315C1193.775,2863.501,1140.759,2881.208,1113.378,2837.886z"/>
					
						<linearGradient id="SVGID_00000134930121538671061580000018147502875863981745_" gradientUnits="userSpaceOnUse" x1="828.0547" y1="2692.4072" x2="1901.4937" y2="3215.0032">
						<stop  offset="0" style="stop-color:#FF9085"/>
						<stop  offset="1" style="stop-color:#FB6FBB"/>
					</linearGradient>
					<path style="fill:url(#SVGID_00000134930121538671061580000018147502875863981745_);" d="M1110.224,3047.896
						c0,0-305.812,24.167-244.019-202.384c61.793-226.551,269.783-399.038,269.783-399.038l-105.589-170.026
						c0,0-494.15,227.75-555.159,594.981c-61.009,367.231,600.912,239.686,600.912,239.686L1110.224,3047.896z"/>
					
						<linearGradient id="SVGID_00000140008642129639928940000016254869834298592653_" gradientUnits="userSpaceOnUse" x1="1254.6201" y1="3072.1357" x2="1256.3857" y2="3072.1357">
						<stop  offset="0" style="stop-color:#FFC444"/>
						<stop  offset="0.9964" style="stop-color:#F36F56"/>
					</linearGradient>
					<path style="fill:url(#SVGID_00000140008642129639928940000016254869834298592653_);" d="M1267.505,3103.353
						c0,0-18.587-62.195-47.516-76.437c-28.928-14.243-109.766,20.979-109.766,20.979s-36.264,50.63-34.073,63.22
						c2.191,12.59,67.375,15.518,90.241-7.762c22.866-23.28,54.168-26.495,67.667-6.505
						C1247.558,3116.839,1267.505,3103.353,1267.505,3103.353z"/>
					
						<linearGradient id="SVGID_00000113342775061404168350000017293166226054774171_" gradientUnits="userSpaceOnUse" x1="1628.3383" y1="3194.4451" x2="1197.55" y2="2922.554">
						<stop  offset="0" style="stop-color:#311944"/>
						<stop  offset="1" style="stop-color:#A03976"/>
					</linearGradient>
					<polygon style="fill:url(#SVGID_00000113342775061404168350000017293166226054774171_);" points="1102.856,3139.731 
						1240.521,3209.527 1780.985,3040.902 1779.534,3012.929 1609.388,3001.394 1110.224,3105.46 					"/>
					
						<linearGradient id="SVGID_00000053517267076258919340000004197739044262253464_" gradientUnits="userSpaceOnUse" x1="1110.2236" y1="2221.3108" x2="1388.998" y2="2221.3108">
						<stop  offset="0" style="stop-color:#FFC444"/>
						<stop  offset="0.9964" style="stop-color:#F36F56"/>
					</linearGradient>
					<path style="fill:url(#SVGID_00000053517267076258919340000004197739044262253464_);" d="M1262.21,2120.747l-31.707,68.051
						c-6.562,14.085-18.843,24.684-33.736,29.116l-86.544,25.757c0,0,189.163,81.625,192.674,78.094
						c3.511-3.531,86.1-85.007,86.1-85.007l-28.294-10.281c-17.102-6.215-28.891-21.979-30.019-40.14l-3.249-52.311
						L1262.21,2120.747z"/>
					<g>
						<g>
							
								<linearGradient id="SVGID_00000179642240925890635460000012150334249176221065_" gradientUnits="userSpaceOnUse" x1="1904.4576" y1="2002.8317" x2="1877.1129" y2="2041.8315" gradientTransform="matrix(0.9943 0.1063 -0.1063 0.9943 -246.6458 -99.2899)">
								<stop  offset="0" style="stop-color:#AA80F9"/>
								<stop  offset="0.9964" style="stop-color:#6165D7"/>
							</linearGradient>
							<path style="fill:url(#SVGID_00000179642240925890635460000012150334249176221065_);" d="M1403.536,2068.921l5.498,0.588
								c22.635,2.419,38.339,29.145,35.074,59.694l-0.183,1.715c-3.265,30.549-24.261,53.353-46.897,50.934l-5.497-0.588
								c-11.419-1.22-17.988-27.358-14.673-58.381C1380.173,2091.861,1392.118,2067.701,1403.536,2068.921z"/>
							
								<linearGradient id="SVGID_00000146495149552951922270000006187918847887735216_" gradientUnits="userSpaceOnUse" x1="1854.7104" y1="2064.6199" x2="1907.6797" y2="1955.7389" gradientTransform="matrix(0.9943 0.1063 -0.1063 0.9943 -246.6458 -99.2899)">
								<stop  offset="0" style="stop-color:#AA80F9"/>
								<stop  offset="0.9964" style="stop-color:#6165D7"/>
							</linearGradient>
							<path style="fill:url(#SVGID_00000146495149552951922270000006187918847887735216_);" d="M1363.958,2121.505
								c-3.628,33.956,6.658,62.896,23.526,64.698c16.868,1.803,33.929-24.215,37.557-58.171
								c3.629-33.956-7.549-62.991-24.417-64.794C1383.756,2061.436,1367.587,2087.549,1363.958,2121.505z"/>
							
								<linearGradient id="SVGID_00000173881652877246396790000013286897481094658221_" gradientUnits="userSpaceOnUse" x1="1893.3785" y1="2019.7058" x2="1902.3688" y2="2014.1008" gradientTransform="matrix(0.9943 0.1063 -0.1063 0.9943 -246.6458 -99.2899)">
								<stop  offset="0" style="stop-color:#444B8C"/>
								<stop  offset="0.9964" style="stop-color:#3E4177"/>
							</linearGradient>
							<polygon style="fill:url(#SVGID_00000173881652877246396790000013286897481094658221_);" points="1388.364,2186.298 
								1381.924,2185.609 1395.064,2062.645 1401.505,2063.333 							"/>
							
								<linearGradient id="SVGID_00000007393581395968718240000004761158833670051972_" gradientUnits="userSpaceOnUse" x1="1901.5754" y1="1990.5275" x2="1874.0813" y2="2023.1019" gradientTransform="matrix(0.9943 0.1063 -0.1063 0.9943 -246.6458 -99.2899)">
								<stop  offset="0" style="stop-color:#AA80F9"/>
								<stop  offset="0.9964" style="stop-color:#6165D7"/>
							</linearGradient>
							<path style="fill:url(#SVGID_00000007393581395968718240000004761158833670051972_);" d="M1357.953,2120.863
								c-3.629,33.956,7.103,62.944,23.971,64.746c16.868,1.803,33.483-24.263,37.112-58.218
								c3.628-33.956-7.104-62.944-23.971-64.746C1378.197,2060.842,1361.581,2086.907,1357.953,2120.863z"/>
							
								<linearGradient id="SVGID_00000178893325973790810480000008517442053903203978_" gradientUnits="userSpaceOnUse" x1="1845.5938" y1="2037.0659" x2="1878.9965" y2="2037.0659" gradientTransform="matrix(0.9943 0.1063 -0.1063 0.9943 -246.6458 -99.2899)">
								<stop  offset="0.0036" style="stop-color:#6165D7"/>
								<stop  offset="1" style="stop-color:#AA80F9"/>
							</linearGradient>
							<path style="opacity:0.6;fill:url(#SVGID_00000178893325973790810480000008517442053903203978_);" d="M1371.888,2122.352
								c-1.973,18.463,3.862,34.224,13.034,35.204c9.171,0.98,18.206-13.193,20.179-31.656c1.973-18.463-3.863-34.224-13.034-35.204
								C1382.895,2089.717,1373.861,2103.889,1371.888,2122.352z"/>
						</g>
						
							<linearGradient id="SVGID_00000008853198487108760420000014502905774268472225_" gradientUnits="userSpaceOnUse" x1="-18194.3047" y1="2969.2566" x2="-18192.0742" y2="2969.2566" gradientTransform="matrix(-0.9495 -0.3138 -0.3138 0.9495 8295.8398 1267.5063)">
							<stop  offset="0" style="stop-color:#311944"/>
							<stop  offset="1" style="stop-color:#A03976"/>
						</linearGradient>
						<path style="fill:url(#SVGID_00000008853198487108760420000014502905774268472225_);" d="M1391.273,2116.802
							c21.29-13.817,33.539-46.87,23.628-74.045c-8.524-23.372-30.735-34.141-44.018-40.587c-38.43-18.641-94.18-20.227-123.682,9.3
							c-17.454,17.475-9.967,69.369-9.139,78.516c0.944,10.345,7.085,15.982,11.447,25.115
							c6.043,12.669,15.432,32.739,30.564,66.124c4.319-6.689,10.185-14.783,17.952-23.055c2.991-3.186,14.866-15.562,29.411-24.147
							C1356.615,2116.783,1371.118,2129.881,1391.273,2116.802z"/>
						
							<linearGradient id="SVGID_00000111177813393803467800000003718484623743003537_" gradientUnits="userSpaceOnUse" x1="-5027.3218" y1="119.0432" x2="-5027.3218" y2="117.2777" gradientTransform="matrix(0.9669 0.2551 -0.2551 0.9669 6848.7139 842.1304)">
							<stop  offset="0" style="stop-color:#FFC444"/>
							<stop  offset="0.9964" style="stop-color:#F36F56"/>
						</linearGradient>
						<path style="fill:url(#SVGID_00000111177813393803467800000003718484623743003537_);" d="M1253.565,2148.188
							c0,0,11.985,51.201,65.207,66.726c47.798,13.941,89.375-85.79,66.758-118.211c-7.541-10.809-26.522-20.949-44.269-22.31
							c-10.473-0.803-15.031,1.917-32.109,0.273c-15.739-1.509-19.3-4.537-24.886-2.513c-6.983,2.537-14.706,12.103-15.655,45.167
							c-5.921-11.962-15.442-19.153-24.167-18.382c-1.392,0.127-5.301,1.103-8.184,3.672
							C1225.836,2111.903,1231.695,2130.657,1253.565,2148.188z"/>
						
							<linearGradient id="SVGID_00000116915154842140900110000018040079337250807485_" gradientUnits="userSpaceOnUse" x1="-18194.0781" y1="3028.8962" x2="-18191.8477" y2="3028.8962" gradientTransform="matrix(-0.9495 -0.3138 -0.3138 0.9495 8295.8398 1267.5063)">
							<stop  offset="0" style="stop-color:#311944"/>
							<stop  offset="1" style="stop-color:#A03976"/>
						</linearGradient>
						<path style="fill:url(#SVGID_00000116915154842140900110000018040079337250807485_);" d="M1284.221,2065.301
							c1.695,2.439-7.943,8.165-12.368,19.561c-8.592,22.106,5.602,57.437,28.633,68.283c13.633,6.417,20.312-0.462,44.453,5.521
							c14.967,3.71,26.406,9.829,33.443,14.164c-1.033,27.342-16.302,49.459-37.141,54.742
							c-22.406,5.68-43.155-10.179-51.822-16.805c-5.793-4.43-24.366-18.572-28.945-41.091c-4.768-23.459,10.298-31.146,1.737-48.93
							c-4.318-8.966-11.952-14.917-16-30.723c-1.097-4.292-1.576-7.914-1.805-10.315
							C1260.609,2071.583,1281.765,2061.769,1284.221,2065.301z"/>
						
							<linearGradient id="SVGID_00000096025783740561763190000015427540105818821018_" gradientUnits="userSpaceOnUse" x1="6315.7041" y1="-1110.6683" x2="6315.7041" y2="-1112.4338" gradientTransform="matrix(-0.9495 -0.3138 -0.3138 0.9495 8295.8398 1267.5063)">
							<stop  offset="0" style="stop-color:#FFC444"/>
							<stop  offset="1" style="stop-color:#F36F56"/>
						</linearGradient>
						<path style="fill:url(#SVGID_00000096025783740561763190000015427540105818821018_);" d="M1358.264,2175.865
							c0,0-11.854,1.501-28.99-5.737c-0.831-0.352-1.851-0.447-2.103-0.058c-0.946,1.466,7.801,12.719,19.079,13.615
							c8.015,0.632,16.013-4.064,15.609-6.138C1361.685,2176.673,1359.993,2176.171,1358.264,2175.865z"/>
						<g>
							
								<linearGradient id="SVGID_00000155858566123199442710000001416973682381633418_" gradientUnits="userSpaceOnUse" x1="1742.1791" y1="1719.0082" x2="1793.5348" y2="1613.4438" gradientTransform="matrix(1.0295 0.11 -0.1166 1.0914 -281.2317 40.1212)">
								<stop  offset="0" style="stop-color:#AA80F9"/>
								<stop  offset="0.9964" style="stop-color:#6165D7"/>
							</linearGradient>
							<path style="fill:url(#SVGID_00000155858566123199442710000001416973682381633418_);" d="M1262.46,2072.829l-6.985-0.814
								l2.469-21.593c4.257-37.236,33.379-64.971,66.3-63.141l35.241,1.959c18.427,1.024,35.021,10.306,46.738,26.135
								c11.716,15.83,16.941,36.032,14.713,56.887l-1.846,17.271l-6.993-0.747l1.846-17.271
								c1.995-18.663-2.681-36.743-13.167-50.909c-10.486-14.167-25.345-22.471-41.826-23.389l-35.241-1.959
								c-29.186-1.622-55.005,22.966-58.778,55.978L1262.46,2072.829z"/>
							<g>
								
									<linearGradient id="SVGID_00000033333736513172754980000000491499469069934474_" gradientUnits="userSpaceOnUse" x1="1776.9926" y1="1587.317" x2="1765.9265" y2="1624.0468" gradientTransform="matrix(1.0295 0.11 -0.1166 1.0914 -281.2317 40.1212)">
									<stop  offset="0" style="stop-color:#AA80F9"/>
									<stop  offset="0.9964" style="stop-color:#6165D7"/>
								</linearGradient>
								<path style="fill:url(#SVGID_00000033333736513172754980000000491499469069934474_);" d="M1404.843,2033.712
									c-2.843-0.304-5.537-1.913-7.331-4.709c-9.151-14.259-23.406-22.936-39.099-23.81l-35.242-1.959
									c-12.308-0.684-24.36,3.962-33.938,13.083c-4.528,4.312-11.183,3.74-14.865-1.277c-3.682-5.018-2.996-12.581,1.532-16.894
									c13.793-13.136,31.151-19.828,48.878-18.842l35.241,1.959c21.969,1.22,41.899,13.359,54.698,33.302
									c3.388,5.28,2.284,12.793-2.467,16.779C1410.015,2033.22,1407.37,2033.982,1404.843,2033.712z"/>
								
									<linearGradient id="SVGID_00000056394212804451624560000015713274606133868457_" gradientUnits="userSpaceOnUse" x1="1777.0449" y1="1587.1432" x2="1765.9515" y2="1623.9637" gradientTransform="matrix(1.0295 0.11 -0.1166 1.0914 -281.2317 40.1212)">
									<stop  offset="0" style="stop-color:#AA80F9"/>
									<stop  offset="0.9964" style="stop-color:#6165D7"/>
								</linearGradient>
								<path style="opacity:0.3;fill:url(#SVGID_00000056394212804451624560000015713274606133868457_);" d="M1392.659,2007.882
									c-24.87-11.283-24.171-19.136-37.581-21.172c-25.075-3.808-38.13,22.035-62.286,15.862
									c-5.663-1.447-10.306-4.239-13.912-7.109c-1.009,0.864-2.004,1.756-2.978,2.684c-4.528,4.312-5.214,11.876-1.532,16.894
									c3.682,5.018,10.337,5.59,14.865,1.277c9.577-9.12,21.63-13.767,33.938-13.083l35.242,1.959
									c15.693,0.874,29.948,9.551,39.099,23.81c1.794,2.796,4.488,4.405,7.331,4.709c2.526,0.27,5.172-0.491,7.407-2.367
									c4.306-3.614,5.617-10.123,3.302-15.242C1408.832,2014.29,1401.044,2011.686,1392.659,2007.882z"/>
							</g>
						</g>
						<g>
							<g>
								
									<linearGradient id="SVGID_00000025411335879174901580000017021245220731467686_" gradientUnits="userSpaceOnUse" x1="1698.4044" y1="2036.0527" x2="1760.5145" y2="2036.0527" gradientTransform="matrix(0.9943 0.1063 -0.1063 0.9943 -246.6458 -99.2899)">
									<stop  offset="0" style="stop-color:#AA80F9"/>
									<stop  offset="0.9964" style="stop-color:#6165D7"/>
								</linearGradient>
								<path style="fill:url(#SVGID_00000025411335879174901580000017021245220731467686_);" d="M1287.401,2112.299
									c-3.669,34.33-20.468,60.683-37.521,58.86c-17.054-1.823-27.904-31.13-24.236-65.46c3.669-34.33,20.467-60.682,37.521-58.86
									C1280.219,2048.661,1291.07,2077.969,1287.401,2112.299z"/>
								
									<linearGradient id="SVGID_00000008112236943849434680000015122672648125265855_" gradientUnits="userSpaceOnUse" x1="1704.4017" y1="2047.0793" x2="1654.5487" y2="2076.0847" gradientTransform="matrix(0.9943 0.1063 -0.1063 0.9943 -246.6458 -99.2899)">
									<stop  offset="0" style="stop-color:#AA80F9"/>
									<stop  offset="0.9964" style="stop-color:#6165D7"/>
								</linearGradient>
								<path style="fill:url(#SVGID_00000008112236943849434680000015122672648125265855_);" d="M1281.33,2111.65
									c-3.669,34.33-20.468,60.682-37.521,58.86c-17.054-1.823-27.904-31.13-24.235-65.46c3.668-34.33,20.467-60.683,37.521-58.86
									C1274.148,2048.012,1284.999,2077.32,1281.33,2111.65z"/>
								
									<linearGradient id="SVGID_00000082359838947140431300000017784126057886541457_" gradientUnits="userSpaceOnUse" x1="1668.9688" y1="2036.0536" x2="1737.256" y2="2036.0536" gradientTransform="matrix(0.9943 0.1063 -0.1063 0.9943 -246.6458 -99.2899)">
									<stop  offset="0" style="stop-color:#AA80F9"/>
									<stop  offset="0.9964" style="stop-color:#6165D7"/>
								</linearGradient>
								<path style="fill:url(#SVGID_00000082359838947140431300000017784126057886541457_);" d="M1249.441,2050.803l-5.558-0.594
									c-22.885-2.446-44.113,20.61-47.413,51.496l-0.185,1.734c-3.301,30.886,12.576,57.906,35.461,60.352l5.558,0.594
									c11.545,1.234,23.621-23.192,26.972-54.557C1267.627,2078.463,1260.985,2052.036,1249.441,2050.803z"/>
							</g>
							
								<linearGradient id="SVGID_00000140699124152644643510000012767826187723964822_" gradientUnits="userSpaceOnUse" x1="1668.9689" y1="2035.1781" x2="1710.0336" y2="2035.1781" gradientTransform="matrix(0.9943 0.1063 -0.1063 0.9943 -246.6458 -99.2899)">
								<stop  offset="0" style="stop-color:#AA80F9"/>
								<stop  offset="0.9964" style="stop-color:#6165D7"/>
							</linearGradient>
							<path style="fill:url(#SVGID_00000140699124152644643510000012767826187723964822_);" d="M1237.301,2106.063
								c-2.419,22.639-13.521,40.015-24.796,38.811c-11.275-1.205-18.454-20.535-16.035-43.174
								c2.419-22.639,13.521-40.015,24.796-38.81C1232.542,2064.094,1239.721,2083.424,1237.301,2106.063z"/>
						</g>
					</g>
				</g>
				<g>
					
						<linearGradient id="SVGID_00000005241381957279595860000013517732525628644028_" gradientUnits="userSpaceOnUse" x1="-571.4287" y1="2718.2686" x2="444.8708" y2="2718.2686" gradientTransform="matrix(-1 0 0 1 1755.9615 0)">
						<stop  offset="0" style="stop-color:#AA80F9"/>
						<stop  offset="0.9964" style="stop-color:#6165D7"/>
					</linearGradient>
					<path style="fill:url(#SVGID_00000005241381957279595860000013517732525628644028_);" d="M1311.091,3197.205l52.51-692.897
						c0.83-10.964,10.217-21.188,22.66-24.687l898.752-252.643c8.048-2.263,23.474-0.047,29.599,3.753
						c6.123,3.8,13.071,2.981,12.769,10.048l-37.565,640.332c-0.625,10.65-9.384,20.749-21.376,24.643l-938.037,304.716
						L1311.091,3197.205z"/>
					
						<linearGradient id="SVGID_00000128463173619271699920000014331531769547416483_" gradientUnits="userSpaceOnUse" x1="128.5941" y1="2414.7632" x2="-396.2274" y2="3212.2856" gradientTransform="matrix(-1 0 0 1 1755.9615 0)">
						<stop  offset="0" style="stop-color:#AA80F9"/>
						<stop  offset="0.9964" style="stop-color:#6165D7"/>
					</linearGradient>
					<path style="fill:url(#SVGID_00000128463173619271699920000014331531769547416483_);" d="M1330.402,3210.47l54.415-698.697
						c0.851-10.952,10.23-21.152,22.655-24.643l898.794-252.655c8.048-2.263,16.27-1.371,22.396,2.43
						c6.125,3.799,9.502,10.105,9.2,17.176l-27.058,633.983c-0.465,10.897-9.495,21.287-21.829,25.112L1330.402,3210.47z"/>
					
						<linearGradient id="SVGID_00000139287732608584414310000012707866640455302299_" gradientUnits="userSpaceOnUse" x1="-563.0036" y1="2953.6665" x2="425.5591" y2="2953.6665" gradientTransform="matrix(-1 0 0 1 1755.9615 0)">
						<stop  offset="0" style="stop-color:#AA80F9"/>
						<stop  offset="0.9964" style="stop-color:#6165D7"/>
					</linearGradient>
					<path style="opacity:0.3;fill:url(#SVGID_00000139287732608584414310000012707866640455302299_);" d="M1330.402,3210.469
						l958.573-297.293c12.333-3.825,21.365-14.215,21.829-25.112l8.161-191.2c-284.557,181.574-642.851,251.688-976.33,356.545
						L1330.402,3210.469z"/>
					<path style="fill:#FFFFFF;" d="M1807.388,3231.748l-34.005,21.117c0,0-161.435-71.59-171.101-75.885
						c-1.536-0.681-8.172-8.947,0-12.348c43.26-18.007,208.326-60.674,208.326-60.674l85.909,40.807L1807.388,3231.748z"/>
					
						<linearGradient id="SVGID_00000032618899922711245550000014053595820157227164_" gradientUnits="userSpaceOnUse" x1="109.0661" y1="3087.0251" x2="-161.0601" y2="3249.1011" gradientTransform="matrix(-1 0 0 1 1755.9615 0)">
						<stop  offset="0" style="stop-color:#AA80F9"/>
						<stop  offset="0.9964" style="stop-color:#6165D7"/>
					</linearGradient>
					<path style="fill:url(#SVGID_00000032618899922711245550000014053595820157227164_);" d="M1807.388,3219.397l-34.005,21.119
						c0,0-161.435-71.588-171.101-75.884c-9.664-4.296,208.326-73.022,208.326-73.022l85.909,40.806L1807.388,3219.397z"/>
					<path style="fill:#FFFFFF;" d="M1975.266,2684.442c0,0,81.613,436.698,90.204,461.038
						c7.93,22.472-223.215,95.357-278.486,109.175c-4.596,1.15-11.445-0.863-13.601-1.79c-15.752,1.433,57.63-527.259,57.63-527.259
						l5.368-1.073L1975.266,2684.442z"/>
					
						<linearGradient id="SVGID_00000105412416789559150810000006370868834328057502_" gradientUnits="userSpaceOnUse" x1="-74.3578" y1="2755.9736" x2="-269.8791" y2="3579.2222" gradientTransform="matrix(-1 0 0 1 1755.9615 0)">
						<stop  offset="0" style="stop-color:#AA80F9"/>
						<stop  offset="0.9964" style="stop-color:#6165D7"/>
					</linearGradient>
					<path style="fill:url(#SVGID_00000105412416789559150810000006370868834328057502_);" d="M1975.266,2684.442
						c0,0,95.931,438.131,104.521,462.471c8.59,24.339-267.745,103.09-292.088,107.385c-15.748,1.431,48.682-529.765,48.682-529.765
						L1975.266,2684.442z"/>
				</g>
			</g>
		</g>
	</g>
</g>
</svg>
